<svg xmlns="http://www.w3.org/2000/svg" xmlns:xlink="http://www.w3.org/1999/xlink" contentStyleType="text/css" data-diagram-type="DESCRIPTION" height="1220.8333px" preserveAspectRatio="none" style="width:904px;height:1220px;" version="1.1" viewBox="0 0 904 1220" width="904.1667px" zoomAndPan="magnify"><title>Arquitectura - Flujo de Comunicaci&#243;n</title><defs><filter height="300%" id="fxww4jjmtyaw0" width="300%" x="-1" y="-1"><feGaussianBlur result="blurOut" stdDeviation="2.0833"/><feColorMatrix in="blurOut" result="blurOut2" type="matrix" values="0 0 0 0 0 0 0 0 0 0 0 0 0 0 0 0 0 0 .4 0"/><feOffset dx="4.1667" dy="4.1667" in="blurOut2" result="blurOut3"/><feBlend in="SourceGraphic" in2="blurOut3" mode="normal"/></filter></defs><g><g class="title" data-source-line="3"><rect fill="none" height="57.5846" rx="4.1667" ry="4.1667" style="stroke:#CCCCCC;stroke-width:1.0417;" width="469.694" x="212.9679" y="20.8333"/><text fill="#2196F3" font-family="'Verdana'" font-size="20.8333" font-weight="bold" lengthAdjust="spacing" textLength="436.3607" x="229.6346" y="56.838">Arquitectura - Flujo de Comunicaci&#243;n</text></g><!--cluster Server--><g class="cluster" data-entity="Server" data-source-line="5" data-uid="ent0002" id="cluster_Server"><polygon fill="none" filter="url(#fxww4jjmtyaw0)" points="30.2083,555.7409,40.625,545.3242,498.9583,545.3242,498.9583,994.2826,488.5417,1004.6992,30.2083,1004.6992,30.2083,555.7409" style="stroke:#2196F3;stroke-width:1.0417;"/><line style="stroke:#2196F3;stroke-width:1.0417;" x1="488.5417" x2="498.9583" y1="555.7409" y2="545.3242"/><line style="stroke:#2196F3;stroke-width:1.0417;" x1="30.2083" x2="488.5417" y1="555.7409" y2="555.7409"/><line style="stroke:#2196F3;stroke-width:1.0417;" x1="488.5417" x2="488.5417" y1="555.7409" y2="1004.6992"/><text fill="#222222" font-family="'Verdana'" font-size="12.5" font-weight="bold" lengthAdjust="spacing" textLength="263.5559" x="128.6387" y="580.8853">Servidor de Aplicaci&#243;n (Node.js + TS)</text></g><!--cluster db--><g class="cluster" data-entity="db" data-source-line="12" data-uid="ent0007" id="cluster_db"><path d="M20.8333,1055.7409 L213.9547,1055.7409 A6.25,6.25 0 0 1 218.1213,1059.9076 L225.413,1097.375 L502.0833,1097.375 A4.1667,4.1667 0 0 1 506.25,1101.5417 L506.25,1204.6992 A4.1667,4.1667 0 0 1 502.0833,1208.8659 L20.8333,1208.8659 A4.1667,4.1667 0 0 1 16.6667,1204.6992 L16.6667,1059.9076 A4.1667,4.1667 0 0 1 20.8333,1055.7409" fill="none" filter="url(#fxww4jjmtyaw0)" style="stroke:#2196F3;stroke-width:2.0833;"/><line style="stroke:#2196F3;stroke-width:2.0833;" x1="16.6667" x2="225.413" y1="1097.375" y2="1097.375"/><text fill="#2196F3" font-family="'Verdana'" font-size="12.5" font-weight="bold" lengthAdjust="spacing" textLength="174.3713" x="31.25" y="1079.8437">Infraestructura de Datos</text></g><!--cluster front--><g class="cluster" data-entity="front" data-source-line="17" data-uid="ent0010" id="cluster_front"><path d="M52.0833,145.3242 L194.3441,145.3242 A6.25,6.25 0 0 1 198.5107,149.4909 L205.8024,186.9583 L555.2083,186.9583 A4.1667,4.1667 0 0 1 559.375,191.125 L559.375,295.3242 A4.1667,4.1667 0 0 1 555.2083,299.4909 L52.0833,299.4909 A4.1667,4.1667 0 0 1 47.9167,295.3242 L47.9167,149.4909 A4.1667,4.1667 0 0 1 52.0833,145.3242" fill="none" filter="url(#fxww4jjmtyaw0)" style="stroke:#2196F3;stroke-width:2.0833;"/><line style="stroke:#2196F3;stroke-width:2.0833;" x1="47.9167" x2="205.8024" y1="186.9583" y2="186.9583"/><text fill="#2196F3" font-family="'Verdana'" font-size="12.5" font-weight="bold" lengthAdjust="spacing" textLength="123.5107" x="62.5" y="169.427">Clientes Externos</text></g><!--entity API--><g class="entity" data-entity="API" data-source-line="6" data-uid="ent0003" id="entity_API"><rect fill="none" filter="url(#fxww4jjmtyaw0)" height="66.6341" rx="4.1667" ry="4.1667" style="stroke:#2196F3;stroke-width:1.0417;" width="181.2134" x="222.9167" y="613.0326"/><rect fill="none" height="10.4167" style="stroke:#2196F3;stroke-width:1.0417;" width="15.625" x="383.2967" y="618.2409"/><rect fill="none" height="2.0833" style="stroke:#2196F3;stroke-width:1.0417;" width="4.1667" x="381.2134" y="620.3242"/><rect fill="none" height="2.0833" style="stroke:#2196F3;stroke-width:1.0417;" width="4.1667" x="381.2134" y="624.4909"/><text fill="#2196F3" font-family="'Verdana'" font-size="12.5" lengthAdjust="spacing" textLength="118.7134" x="248.9583" y="655.8853">API REST (Express)</text></g><!--entity AdminCtrl--><g class="entity" data-entity="AdminCtrl" data-source-line="7" data-uid="ent0004" id="entity_AdminCtrl"><rect fill="none" filter="url(#fxww4jjmtyaw0)" height="66.6341" rx="4.1667" ry="4.1667" style="stroke:#2196F3;stroke-width:1.0417;" width="194.574" x="63.0208" y="913.0326"/><rect fill="none" height="10.4167" style="stroke:#2196F3;stroke-width:1.0417;" width="15.625" x="236.7615" y="918.2409"/><rect fill="none" height="2.0833" style="stroke:#2196F3;stroke-width:1.0417;" width="4.1667" x="234.6781" y="920.3242"/><rect fill="none" height="2.0833" style="stroke:#2196F3;stroke-width:1.0417;" width="4.1667" x="234.6781" y="924.4909"/><text fill="#2196F3" font-family="'Verdana'" font-size="12.5" lengthAdjust="spacing" textLength="132.074" x="89.0625" y="955.8853">Controladores Admin</text></g><!--entity UserCtrl--><g class="entity" data-entity="UserCtrl" data-source-line="8" data-uid="ent0005" id="entity_UserCtrl"><rect fill="none" filter="url(#fxww4jjmtyaw0)" height="66.6341" rx="4.1667" ry="4.1667" style="stroke:#2196F3;stroke-width:1.0417;" width="178.9368" x="294.7917" y="913.0326"/><rect fill="none" height="10.4167" style="stroke:#2196F3;stroke-width:1.0417;" width="15.625" x="452.8951" y="918.2409"/><rect fill="none" height="2.0833" style="stroke:#2196F3;stroke-width:1.0417;" width="4.1667" x="450.8118" y="920.3242"/><rect fill="none" height="2.0833" style="stroke:#2196F3;stroke-width:1.0417;" width="4.1667" x="450.8118" y="924.4909"/><text fill="#2196F3" font-family="'Verdana'" font-size="12.5" lengthAdjust="spacing" textLength="116.4368" x="320.8333" y="955.8853">Controladores App</text></g><!--entity Middleware--><g class="entity" data-entity="Middleware" data-source-line="9" data-uid="ent0006" id="entity_Middleware"><rect fill="none" filter="url(#fxww4jjmtyaw0)" height="66.6341" rx="4.1667" ry="4.1667" style="stroke:#2196F3;stroke-width:1.0417;" width="211.6943" x="207.8125" y="782.8242"/><rect fill="none" height="10.4167" style="stroke:#2196F3;stroke-width:1.0417;" width="15.625" x="398.6735" y="788.0326"/><rect fill="none" height="2.0833" style="stroke:#2196F3;stroke-width:1.0417;" width="4.1667" x="396.5902" y="790.1159"/><rect fill="none" height="2.0833" style="stroke:#2196F3;stroke-width:1.0417;" width="4.1667" x="396.5902" y="794.2826"/><text fill="#2196F3" font-family="'Verdana'" font-size="12.5" lengthAdjust="spacing" textLength="149.1943" x="233.8542" y="825.677">Middlewares Auth (JWT)</text></g><!--entity Postgres--><g class="entity" data-entity="Postgres" data-source-line="13" data-uid="ent0008" id="entity_Postgres"><path d="M61.4583,1128.6576 C61.4583,1118.2409 157.4839,1118.2409 157.4839,1118.2409 C157.4839,1118.2409 253.5095,1118.2409 253.5095,1128.6576 L253.5095,1173.4167 C253.5095,1183.8333 157.4839,1183.8333 157.4839,1183.8333 C157.4839,1183.8333 61.4583,1183.8333 61.4583,1173.4167 L61.4583,1128.6576" fill="none" filter="url(#fxww4jjmtyaw0)" style="stroke:#2196F3;stroke-width:1.0417;"/><path d="M61.4583,1128.6576 C61.4583,1139.0742 157.4839,1139.0742 157.4839,1139.0742 C157.4839,1139.0742 253.5095,1139.0742 253.5095,1128.6576" fill="none" style="stroke:#2196F3;stroke-width:1.0417;"/><text fill="#2196F3" font-family="'Verdana'" font-size="12.5" lengthAdjust="spacing" textLength="150.3845" x="82.2917" y="1165.2603">PostgreSQL (Relacional)</text></g><!--entity Mongo--><g class="entity" data-entity="Mongo" data-source-line="14" data-uid="ent0009" id="entity_Mongo"><path d="M289.5833,1128.6576 C289.5833,1118.2409 385.2946,1118.2409 385.2946,1118.2409 C385.2946,1118.2409 481.0059,1118.2409 481.0059,1128.6576 L481.0059,1173.4167 C481.0059,1183.8333 385.2946,1183.8333 385.2946,1183.8333 C385.2946,1183.8333 289.5833,1183.8333 289.5833,1173.4167 L289.5833,1128.6576" fill="none" filter="url(#fxww4jjmtyaw0)" style="stroke:#2196F3;stroke-width:1.0417;"/><path d="M289.5833,1128.6576 C289.5833,1139.0742 385.2946,1139.0742 385.2946,1139.0742 C385.2946,1139.0742 481.0059,1139.0742 481.0059,1128.6576" fill="none" style="stroke:#2196F3;stroke-width:1.0417;"/><text fill="#2196F3" font-family="'Verdana'" font-size="12.5" lengthAdjust="spacing" textLength="149.7559" x="310.4167" y="1165.2603">MongoDB (Documental)</text></g><!--entity WebAdmin--><g class="entity" data-entity="WebAdmin" data-source-line="18" data-uid="ent0011" id="entity_WebAdmin"><rect fill="none" filter="url(#fxww4jjmtyaw0)" height="66.6341" rx="4.1667" ry="4.1667" style="stroke:#2196F3;stroke-width:1.0417;" width="186.1816" x="93.2292" y="207.8242"/><rect fill="none" height="10.4167" style="stroke:#2196F3;stroke-width:1.0417;" width="15.625" x="258.5775" y="213.0326"/><rect fill="none" height="2.0833" style="stroke:#2196F3;stroke-width:1.0417;" width="4.1667" x="256.4941" y="215.1159"/><rect fill="none" height="2.0833" style="stroke:#2196F3;stroke-width:1.0417;" width="4.1667" x="256.4941" y="219.2826"/><text fill="#2196F3" font-family="'Verdana'" font-size="12.5" lengthAdjust="spacing" textLength="123.6816" x="119.2708" y="250.677">P&#225;gina Web (React)</text></g><!--entity MobileApp--><g class="entity" data-entity="MobileApp" data-source-line="19" data-uid="ent0012" id="entity_MobileApp"><rect fill="none" filter="url(#fxww4jjmtyaw0)" height="66.6341" rx="4.1667" ry="4.1667" style="stroke:#2196F3;stroke-width:1.0417;" width="217.6514" x="316.1458" y="207.8242"/><rect fill="none" height="10.4167" style="stroke:#2196F3;stroke-width:1.0417;" width="15.625" x="512.9639" y="213.0326"/><rect fill="none" height="2.0833" style="stroke:#2196F3;stroke-width:1.0417;" width="4.1667" x="510.8805" y="215.1159"/><rect fill="none" height="2.0833" style="stroke:#2196F3;stroke-width:1.0417;" width="4.1667" x="510.8805" y="219.2826"/><text fill="#2196F3" font-family="'Verdana'" font-size="12.5" lengthAdjust="spacing" textLength="155.1514" x="342.1875" y="250.677">App M&#243;vil (React Native)</text></g><g class="entity" data-entity="GMN13" data-source-line="23" data-uid="ent0014" id="entity_GMN13"><path d="M584.375,207.8242 L584.375,274.3932 A4.1667,4.1667 0 0 0 588.5417,278.5599 L884.3913,278.5599 A4.1667,4.1667 0 0 0 888.5579,274.3932 L888.5579,214.0742 L878.1413,203.6576 L588.5417,203.6576 A4.1667,4.1667 0 0 0 584.375,207.8242" fill="none" filter="url(#fxww4jjmtyaw0)" style="stroke:#9C27B0;stroke-width:1.0417;"/><path d="M878.1413,203.6576 L878.1413,211.9909 A2.0833,2.0833 0 0 0 880.2246,214.0742 L888.5579,214.0742 L878.1413,203.6576" fill="none" style="stroke:#9C27B0;stroke-width:1.0417;"/><text fill="#9C27B0" font-family="'Verdana'" font-size="12.5" lengthAdjust="spacing" textLength="261.4746" x="601.0417" y="230.8853">Estos son los dos ambientes de FrontEnd:</text><text fill="#9C27B0" font-family="'Verdana'" font-size="12.5" lengthAdjust="spacing" textLength="200.9949" x="601.0417" y="245.4361">la app movil (Usuarios finales) y</text><text fill="#9C27B0" font-family="'Verdana'" font-size="12.5" lengthAdjust="spacing" textLength="203.9063" x="601.0417" y="259.9869">la p&#225;gina web (Administradores)</text></g><!--entity Axios--><g class="entity" data-entity="Axios" data-source-line="29" data-uid="ent0016" id="entity_Axios"><ellipse cx="238.5417" cy="440.1159" fill="none" filter="url(#fxww4jjmtyaw0)" rx="8.3333" ry="8.3333" style="stroke:#E51C23;stroke-width:1.0417;"/><text fill="#222222" font-family="'Verdana'" font-size="12.5" lengthAdjust="spacing" textLength="33.5815" x="221.7509" y="479.8437">Axios</text></g><!--entity Fetch_Axios--><g class="entity" data-entity="Fetch_Axios" data-source-line="32" data-uid="ent0019" id="entity_Fetch_Axios"><ellipse cx="382.2917" cy="440.1159" fill="none" filter="url(#fxww4jjmtyaw0)" rx="8.3333" ry="8.3333" style="stroke:#E51C23;stroke-width:1.0417;"/><text fill="#222222" font-family="'Verdana'" font-size="12.5" lengthAdjust="spacing" textLength="74.408" x="345.0877" y="479.8437">Fetch_Axios</text></g><g class="entity" data-entity="GMN29" data-source-line="47" data-uid="ent0030" id="entity_GMN29"><path d="M524.4792,613.0326 L524.4792,679.6016 A4.1667,4.1667 0 0 0 528.6458,683.7682 L765.5599,683.7682 A4.1667,4.1667 0 0 0 769.7266,679.6016 L769.7266,619.2826 L759.3099,608.8659 L528.6458,608.8659 A4.1667,4.1667 0 0 0 524.4792,613.0326" fill="none" filter="url(#fxww4jjmtyaw0)" style="stroke:#9C27B0;stroke-width:1.0417;"/><path d="M759.3099,608.8659 L759.3099,617.1992 A2.0833,2.0833 0 0 0 761.3932,619.2826 L769.7266,619.2826 L759.3099,608.8659" fill="none" style="stroke:#9C27B0;stroke-width:1.0417;"/><text fill="#9C27B0" font-family="'Verdana'" font-size="12.5" lengthAdjust="spacing" textLength="202.5391" x="541.1458" y="636.0937">El Backend centraliza las reglas.</text><text fill="#9C27B0" font-family="'Verdana'" font-size="12.5" lengthAdjust="spacing" textLength="197.583" x="541.1458" y="650.6444">Usa DTOs para filtrar qu&#233; datos</text><text fill="#9C27B0" font-family="'Verdana'" font-size="12.5" lengthAdjust="spacing" textLength="147.0337" x="541.1458" y="665.1952">van a la App vs la Web.</text></g><g class="entity" data-entity="GMN32" data-source-line="53" data-uid="ent0033" id="entity_GMN32"><path d="M530.7292,1125.0117 L530.7292,1177.0299 A4.1667,4.1667 0 0 0 534.8958,1181.1966 L888.3382,1181.1966 A4.1667,4.1667 0 0 0 892.5049,1177.0299 L892.5049,1131.2617 L882.0882,1120.8451 L534.8958,1120.8451 A4.1667,4.1667 0 0 0 530.7292,1125.0117" fill="none" filter="url(#fxww4jjmtyaw0)" style="stroke:#9C27B0;stroke-width:1.0417;"/><path d="M882.0882,1120.8451 L882.0882,1129.1784 A2.0833,2.0833 0 0 0 884.1715,1131.2617 L892.5049,1131.2617 L882.0882,1120.8451" fill="none" style="stroke:#9C27B0;stroke-width:1.0417;"/><text fill="#9C27B0" font-family="'Verdana'" font-size="12.5" lengthAdjust="spacing" textLength="319.0674" x="547.3958" y="1148.0728">el back se comunica con PostgreSQL por Sequelize</text><text fill="#9C27B0" font-family="'Verdana'" font-size="12.5" lengthAdjust="spacing" textLength="177.5452" x="547.3958" y="1162.6236">y  con mongo por Mongoose</text></g><!--link front to GMN13--><g class="link" data-entity-1="front" data-entity-2="GMN13" data-source-line="23" data-uid="lnk15" id="link_front_GMN13"><path d="M63.2854,145.1943 C63.3694,144.9951 63.454,144.7964 63.5392,144.5982 C64.2214,143.0127 64.9471,141.458 65.7186,139.9393 C71.8906,127.7897 80.9974,117.944 94.2708,113.0326 C139.9688,96.1263 485.9896,99.5326 532.8125,113.0326 C593.8125,130.6263 654.1771,172.5013 693.1458,203.6159" fill="none" id="front-GMN13" style="stroke:#2196F3;stroke-width:3.125;stroke-dasharray:7.2917,7.2917;"/></g><!--link WebAdmin to Axios--><g class="link" data-entity-1="WebAdmin" data-entity-2="Axios" data-source-line="29" data-uid="lnk17" id="link_WebAdmin_Axios"><path d="M195.0625,274.7096 C207.3646,321.2305 226.6269,394.0563 233.6477,420.5875" fill="none" id="WebAdmin-to-Axios" style="stroke:#2196F3;stroke-width:3.125;"/><path d="M244.0087,425.3041 A9.375,9.375 0 0 0 226.9758 429.8115" fill="none" style="stroke:#2196F3;stroke-width:1.5625;"/><text fill="#222222" font-family="'Verdana'" font-size="12.5" lengthAdjust="spacing" textLength="76.5076" x="229.1667" y="347.552">HTTPS/REST</text></g><!--link Axios to API--><g class="link" data-entity-1="Axios" data-entity-2="API" data-source-line="30" data-uid="lnk18" id="link_Axios_API"><path d="M241.7604,449.9284 C251.9688,477.7096 281.7936,558.8843 299.4186,606.8843" fill="none" id="Axios-to-API" style="stroke:#2196F3;stroke-width:3.125;"/><polygon fill="#2196F3" points="301.5729,612.7513,302.2528,602.5146,299.7777,607.8621,294.4302,605.387,301.5729,612.7513" style="stroke:#2196F3;stroke-width:3.125;"/></g><!--link MobileApp to Fetch_Axios--><g class="link" data-entity-1="MobileApp" data-entity-2="Fetch_Axios" data-source-line="32" data-uid="lnk20" id="link_MobileApp_Fetch_Axios"><path d="M417.9479,274.7096 C407.8542,321.2305 392.0852,393.9468 386.3247,420.4781" fill="none" id="MobileApp-to-Fetch_Axios" style="stroke:#2196F3;stroke-width:3.125;"/><path d="M393.4039,429.3933 A9.375,9.375 0 0 0 376.1859 425.6549" fill="none" style="stroke:#2196F3;stroke-width:1.5625;"/><text fill="#222222" font-family="'Verdana'" font-size="12.5" lengthAdjust="spacing" textLength="76.5076" x="416.6667" y="347.552">HTTPS/REST</text></g><!--link Fetch_Axios to API--><g class="link" data-entity-1="Fetch_Axios" data-entity-2="API" data-source-line="33" data-uid="lnk21" id="link_Fetch_Axios_API"><path d="M379.3333,449.9284 C369.9792,477.7096 342.672,558.8282 326.5053,606.8282" fill="none" id="Fetch_Axios-to-API" style="stroke:#2196F3;stroke-width:3.125;"/><polygon fill="#2196F3" points="324.5104,612.7513,331.4515,605.1966,326.1729,607.8154,323.5541,602.5367,324.5104,612.7513" style="stroke:#2196F3;stroke-width:3.125;"/></g><!--link API to Middleware--><g class="link" data-entity-1="API" data-entity-2="Middleware" data-source-line="36" data-uid="lnk22" id="link_API_Middleware"><path d="M313.5417,679.7409 C313.5417,709.3451 313.5417,746.6784 313.5417,776.3451" fill="none" id="API-to-Middleware" style="stroke:#2196F3;stroke-width:3.125;"/><polygon fill="#2196F3" points="313.5417,782.5951,317.7083,773.2201,313.5417,777.3867,309.375,773.2201,313.5417,782.5951" style="stroke:#2196F3;stroke-width:3.125;"/><text fill="#222222" font-family="'Verdana'" font-size="12.5" lengthAdjust="spacing" textLength="66.4063" x="325" y="738.177">Valida JWT</text></g><!--link Middleware to AdminCtrl--><g class="link" data-entity-1="Middleware" data-entity-2="AdminCtrl" data-source-line="37" data-uid="lnk23" id="link_Middleware_AdminCtrl"><path d="M274.9063,849.5326 C251.6875,868.9492 227.0436,889.5742 203.8353,908.9908" fill="none" id="Middleware-to-AdminCtrl" style="stroke:#2196F3;stroke-width:3.125;"/><polygon fill="#2196F3" points="199.0417,913.0013,208.9057,910.1814,203.0363,909.6593,203.5585,903.7899,199.0417,913.0013" style="stroke:#2196F3;stroke-width:3.125;"/></g><!--link Middleware to UserCtrl--><g class="link" data-entity-1="Middleware" data-entity-2="UserCtrl" data-source-line="38" data-uid="lnk24" id="link_Middleware_UserCtrl"><path d="M331.4167,849.5326 C342.1563,868.9492 352.7458,888.1155 363.4854,907.5322" fill="none" id="Middleware-to-UserCtrl" style="stroke:#2196F3;stroke-width:3.125;"/><polygon fill="#2196F3" points="366.5104,913.0013,365.6189,902.7809,363.9895,908.4437,358.3267,906.8143,366.5104,913.0013" style="stroke:#2196F3;stroke-width:3.125;"/></g><!--link AdminCtrl to Postgres--><g class="link" data-entity-1="AdminCtrl" data-entity-2="Postgres" data-source-line="41" data-uid="lnk25" id="link_AdminCtrl_Postgres"><path d="M159.9167,979.9596 C159.3229,1017.9909 158.4613,1074.252 157.8779,1111.9604" fill="none" id="AdminCtrl-to-Postgres" style="stroke:#2196F3;stroke-width:3.125;"/><polygon fill="#2196F3" points="157.7813,1118.2096,162.0924,1108.9002,157.8618,1113.0019,153.7601,1108.7713,157.7813,1118.2096" style="stroke:#2196F3;stroke-width:3.125;"/></g><!--link AdminCtrl to Mongo--><g class="link" data-entity-1="AdminCtrl" data-entity-2="Mongo" data-source-line="42" data-uid="lnk26" id="link_AdminCtrl_Mongo"><path d="M201.625,979.8971 C222.9583,997.0742 249.2083,1018.7513 271.875,1039.0742 C300.6042,1064.8346 327.4605,1091.1603 349.898,1113.7541" fill="none" id="AdminCtrl-to-Mongo" style="stroke:#2196F3;stroke-width:3.125;"/><polygon fill="#2196F3" points="354.3021,1118.1888,350.6525,1108.6007,350.632,1114.4932,344.7395,1114.4728,354.3021,1118.1888" style="stroke:#2196F3;stroke-width:3.125;"/></g><!--link UserCtrl to Postgres--><g class="link" data-entity-1="UserCtrl" data-entity-2="Postgres" data-source-line="43" data-uid="lnk27" id="link_UserCtrl_Postgres"><path d="M342.7917,979.8867 C321.2604,997.0638 294.7604,1018.7409 271.875,1039.0742 C242.8958,1064.8242 215.7683,1091.1703 193.1224,1113.7641" fill="none" id="UserCtrl-to-Postgres" style="stroke:#2196F3;stroke-width:3.125;"/><polygon fill="#2196F3" points="188.6979,1118.1784,198.2776,1114.5066,192.385,1114.4998,192.3918,1108.6072,188.6979,1118.1784" style="stroke:#2196F3;stroke-width:3.125;"/></g><!--link UserCtrl to Mongo--><g class="link" data-entity-1="UserCtrl" data-entity-2="Mongo" data-source-line="44" data-uid="lnk28" id="link_UserCtrl_Mongo"><path d="M384.5417,979.9596 C384.7396,1017.9909 385.0314,1074.2514 385.2189,1111.9597" fill="none" id="UserCtrl-to-Mongo" style="stroke:#2196F3;stroke-width:3.125;"/><polygon fill="#2196F3" points="385.25,1118.2096,389.37,1108.814,385.2241,1113.0014,381.0368,1108.8555,385.25,1118.2096" style="stroke:#2196F3;stroke-width:3.125;"/></g><!--link Server to GMN29--><g class="link" data-entity-1="Server" data-entity-2="GMN29" data-source-line="47" data-uid="lnk31" id="link_Server_GMN29"><path d="M35.4163,545.0446 C35.5486,544.6105 35.684,544.1782 35.8225,543.7477 C36.3765,542.0259 36.9801,540.3339 37.6364,538.6769 C42.8867,525.4212 51.5104,514.4102 65.1042,508.3451 C106.4271,489.9076 429.6563,493.4805 472.3958,508.3451 C529.3021,528.1367 581.6458,575.0534 613.8542,608.6992" fill="none" id="Server-GMN29" style="stroke:#2196F3;stroke-width:3.125;stroke-dasharray:7.2917,7.2917;"/></g><!--link db to GMN32--><g class="link" data-entity-1="db" data-entity-2="GMN32" data-source-line="53" data-uid="lnk34" id="link_db_GMN32"><path d="M35.0967,1055.6862 C35.2521,1055.3392 35.4095,1054.9931 35.5688,1054.6481 C38.1177,1049.1283 41.1628,1043.8789 44.7917,1039.0742 C50.2188,1031.8867 54.2396,1032.2409 63.0208,1030.2201 C108.1354,1019.8451 434.5729,1019.8451 479.6875,1030.2201 C551.3333,1046.6992 625.1146,1090.7096 669.6354,1120.8034" fill="none" id="db-GMN32" style="stroke:#2196F3;stroke-width:3.125;stroke-dasharray:7.2917,7.2917;"/></g><!--SRC=[RLJ1RXen4BtxAwPSigY2t7EeH82eL2MX0Pf3LLMpkmCuzTeRsqkILlsO7dlE9_1Z7NkN3Q2iX5WyRpppthpXdTzGGL2W9oknPoglf2OXlFIAO60VAkafyvL5wC6LgkuDv0H3KrHQPfZ9tOiMGXi-wyp9RcLkR00CIhKFGtBDuVwzW_Umc7SxW0u2b2py5i3Fjy5i0hVZ-GAIyLDfoRdkzm3Yupe-DDfRev3l9ZxE2wbhG7WRUglUX9Lb12qTsLVCLEQveaUCYCfl8FbqjwZBlOR47o5Ap7xYcbbDzCeYEM-hMWKcDq9lNEIHfms773scw1W_CywlBSs_V8RabXHhO3IgcdOJSoSfKwFNPdG9oSXaLK7Qx_4nSDJDK4cES_FZ9nwORjfOMQQ-LtEs-xkM6k6Eqj01Phxcnx-ZO8tcPGdJtSjMgWO4r-ZbbXejJ2eLCIQ2kGDjF86Lwuq7iwhhnL1unexb06SqAFxE-OD5shJ9Qbq5y5Zd5ss2Ga0kNvXOVUagj9ApLjor8jU5PpY4bWsVny0dCf0yZNhANK4wXz2S46S7hZIwbOZP9C5SNR4N07gz10PFeUG5T3uk5hFvUK1qH7tOwts8tXEj2Z7ZYdos-V5ctc6epJvhrcMYuwHO2WMNF4VkM0J71-2hvyALNr79784TsH47aNXZQ_MJG6jlhZSZwrWRqfb4A2YNoANXvdPwVZEQYlQAcDTQyVWuEWx4_jOZwCbn0psnHhtPFBznonOoze9bRh-Gv-d0qfg_-enPEeJHuiP1YRnPAwaOPk6XslqBss72dcnHGqWB-mnR5zvuZls3kH_NprF1EgTS6NYriiOH_ABXO3DB_fUQqqD5t1I9PuZn8X8AeKZDE6gh_0S0]--></g></svg>